<svg xmlns="http://www.w3.org/2000/svg" xmlns:xlink="http://www.w3.org/1999/xlink" version="1.1" id="Calque_1" x="0px" y="0px" viewBox="0 0 50 50" xml:space="preserve" enable-background="new 0 0 50 50">
  <g>
    <path d="M28.424 36.671l0.017-12.036c0 0 0.028-1.226-0.294-2.05 -0.245-0.627-0.613-1.152-0.886-1.489 -0.212-0.263-0.369-0.415-0.369-0.415s-0.001-0.001-0.002-0.002c-0.009-0.009-0.048-0.051-0.1-0.113 0 0 0 0 0 0 -0.007-0.008-0.014-0.016-0.021-0.025 -0.091-0.111-0.209-0.27-0.29-0.438 -0.141-0.291-0.158-0.61-0.158-0.61l-0.051-1.438 -0.004 0 0-0.001c0.003 0 0.004 0 0.004 0s-0.068-3.382-0.061-3.454c0.004-0.042 0.019-0.069 0.025-0.078l0.01-0.011c0.005-0.005 0.011-0.011 0.016-0.018l0.001-0.001 0 0c0.005-0.006 0.009-0.012 0.01-0.018 0.002-0.006 0.003-0.012 0.005-0.018l0 0 0 0c0.006-0.029 0.005-0.053 0.005-0.053s-0.001-0.639-0.017-0.719c-0.012-0.061-0.052-0.068-0.052-0.068s-0.015-0.005-0.028-0.02l-0.018-0.067c0 0-0.001 0-0.002 0 -0.001-0.016 0-0.028 0-0.028l0.011-0.152c0 0 0.043-0.266-0.145-0.324 -0.075-0.023-0.142-0.045-0.238-0.052 -0.343-0.027-0.636-0.059-0.925-0.059 -0.367 0-0.582 0.033-0.925 0.059 -0.096 0.007-0.163 0.029-0.238 0.052 -0.187 0.058-0.145 0.324-0.145 0.324l0.011 0.152c0 0 0.002 0.049-0.01 0.077 -0.012 0.029-0.038 0.038-0.038 0.038s-0.039 0.006-0.052 0.068c-0.016 0.081-0.017 0.719-0.017 0.719s-0.001 0.035 0.01 0.071c0.001 0.003 0.003 0.006 0.005 0.01l0 0 0 0c0.01 0.016 0.029 0.033 0.029 0.033l0.014 0.026c0.006 0.014 0.012 0.033 0.014 0.057 0.008 0.072-0.061 3.454-0.061 3.454s0.002 0 0.004 0l-0.015 0.715 0 0 -0.002 0.036 -0.042 0.69c0 0-0.017 0.318-0.158 0.61 -0.128 0.265-0.349 0.51-0.407 0.572 -0.001 0.001-0.003 0.003-0.003 0.003s-0.032 0.031-0.086 0.089c-0.21 0.222-0.819 0.913-1.172 1.817 -0.322 0.824-0.294 2.05-0.294 2.05l0.017 12.036 -0.026 2.527c0 0-0.016 0.466 0.031 0.923 0.021 0.2 0.07 0.394 0.11 0.553 0.051 0.205 0.331 0.331 0.331 0.331s0.291 0.137 0.708 0.206c0.145 0.024 0.327 0.044 0.525 0.06 0.585 0.07 1.203 0.102 1.881 0.102 0.628 0 1.308-0.034 1.93-0.109 0.177-0.015 0.339-0.034 0.471-0.056 0.417-0.069 0.708-0.206 0.708-0.206s0.28-0.126 0.331-0.331c0.04-0.159 0.089-0.353 0.11-0.553 0.047-0.456 0.031-0.922 0.031-0.922L28.424 36.671z" fill="#FFF"/>
    <path d="M34.324 35.24l0.017-12.036c0 0 0.028-1.226-0.294-2.05 -0.245-0.627-0.613-1.152-0.886-1.489 -0.212-0.263-0.369-0.415-0.369-0.415s-0.001-0.001-0.002-0.002c-0.009-0.009-0.048-0.051-0.1-0.113 0 0 0 0 0 0 -0.007-0.008-0.014-0.016-0.021-0.025 -0.091-0.111-0.209-0.27-0.29-0.438 -0.141-0.291-0.158-0.61-0.158-0.61l-0.051-1.438 -0.004 0 0-0.001c0.003 0 0.004 0 0.004 0s-0.068-3.382-0.061-3.454c0.004-0.042 0.019-0.069 0.025-0.078l0.01-0.011c0.005-0.005 0.011-0.011 0.016-0.018l0.001-0.001 0 0c0.005-0.006 0.009-0.012 0.01-0.018 0.002-0.006 0.003-0.012 0.005-0.018l0 0 0 0c0.006-0.029 0.005-0.053 0.005-0.053s-0.001-0.639-0.017-0.719c-0.012-0.061-0.052-0.068-0.052-0.068s-0.015-0.005-0.028-0.02l-0.018-0.067c0 0-0.001 0-0.002 0 -0.001-0.016 0-0.028 0-0.028l0.011-0.152c0 0 0.043-0.266-0.145-0.324 -0.075-0.023-0.142-0.045-0.238-0.052 -0.343-0.027-0.636-0.059-0.925-0.059 -0.367 0-0.582 0.033-0.925 0.059 -0.096 0.007-0.163 0.029-0.238 0.052 -0.187 0.058-0.145 0.324-0.145 0.324l0.011 0.152c0 0 0.002 0.049-0.01 0.077 -0.012 0.029-0.038 0.038-0.038 0.038s-0.039 0.006-0.052 0.068c-0.016 0.081-0.017 0.719-0.017 0.719s-0.001 0.035 0.01 0.071c0.001 0.003 0.003 0.006 0.005 0.01l0 0 0 0c0.01 0.016 0.029 0.033 0.029 0.033l0.014 0.026c0.006 0.014 0.012 0.033 0.014 0.057 0.008 0.072-0.061 3.454-0.061 3.454s0.002 0 0.004 0l-0.015 0.715 0 0 -0.002 0.036 -0.042 0.69c0 0-0.017 0.318-0.158 0.61 -0.128 0.265-0.349 0.51-0.407 0.572 -0.001 0.001-0.003 0.003-0.003 0.003s-0.032 0.031-0.086 0.089c-0.21 0.222-0.819 0.913-1.172 1.817 -0.322 0.824-0.294 2.05-0.294 2.05l0.017 12.036 -0.026 2.527c0 0-0.016 0.466 0.031 0.923 0.021 0.2 0.07 0.394 0.11 0.553 0.051 0.205 0.331 0.331 0.331 0.331s0.291 0.137 0.708 0.206c0.145 0.024 0.327 0.044 0.525 0.06 0.585 0.07 1.203 0.102 1.881 0.102 0.628 0 1.308-0.034 1.93-0.109 0.177-0.015 0.339-0.034 0.471-0.056 0.417-0.069 0.708-0.206 0.708-0.206s0.28-0.126 0.331-0.331c0.04-0.159 0.089-0.353 0.11-0.553 0.047-0.456 0.031-0.922 0.031-0.922L34.324 35.24z" style="fill:#FFF;opacity:0.9"/>
    <path d="M40.223 33.81l0.017-12.036c0 0 0.028-1.226-0.294-2.05 -0.245-0.627-0.613-1.152-0.886-1.489 -0.212-0.263-0.369-0.415-0.369-0.415s-0.001-0.001-0.002-0.002c-0.009-0.009-0.048-0.051-0.1-0.113 0 0 0 0 0 0 -0.007-0.008-0.014-0.016-0.021-0.025 -0.091-0.111-0.209-0.27-0.29-0.438 -0.141-0.291-0.158-0.61-0.158-0.61l-0.051-1.438 -0.004 0 0-0.001c0.003 0 0.004 0 0.004 0s-0.068-3.382-0.061-3.454c0.004-0.042 0.019-0.069 0.025-0.078l0.01-0.011c0.005-0.005 0.011-0.011 0.016-0.018l0.001-0.001 0 0c0.005-0.006 0.009-0.012 0.01-0.018 0.002-0.006 0.003-0.012 0.005-0.018l0 0 0 0c0.006-0.029 0.005-0.053 0.005-0.053s-0.001-0.639-0.017-0.719c-0.012-0.061-0.052-0.068-0.052-0.068s-0.015-0.005-0.028-0.02l-0.018-0.067c0 0-0.001 0-0.002 0 -0.001-0.016 0-0.028 0-0.028l0.011-0.152c0 0 0.043-0.266-0.145-0.324 -0.075-0.023-0.142-0.045-0.238-0.052 -0.343-0.027-0.636-0.059-0.925-0.059 -0.367 0-0.582 0.033-0.925 0.059 -0.096 0.007-0.163 0.029-0.238 0.052 -0.187 0.058-0.145 0.324-0.145 0.324l0.011 0.152c0 0 0.002 0.049-0.01 0.077 -0.012 0.029-0.038 0.038-0.038 0.038s-0.039 0.006-0.052 0.068c-0.016 0.081-0.017 0.719-0.017 0.719s-0.001 0.035 0.01 0.071c0.001 0.003 0.003 0.006 0.005 0.01l0 0 0 0c0.01 0.016 0.029 0.033 0.029 0.033l0.014 0.026c0.006 0.014 0.012 0.033 0.014 0.057 0.008 0.072-0.061 3.454-0.061 3.454s0.002 0 0.004 0l-0.015 0.715 0 0 -0.002 0.036 -0.042 0.69c0 0-0.017 0.318-0.158 0.61 -0.128 0.265-0.349 0.51-0.407 0.572 -0.001 0.001-0.003 0.003-0.003 0.003s-0.032 0.031-0.086 0.089c-0.21 0.222-0.819 0.913-1.172 1.817 -0.322 0.824-0.294 2.05-0.294 2.05l0.017 12.036 -0.026 2.527c0 0-0.016 0.466 0.031 0.923 0.021 0.2 0.07 0.394 0.11 0.553 0.051 0.205 0.331 0.331 0.331 0.331s0.291 0.137 0.708 0.206c0.145 0.024 0.327 0.044 0.525 0.06 0.585 0.07 1.203 0.102 1.881 0.102 0.628 0 1.308-0.034 1.93-0.109 0.177-0.015 0.339-0.034 0.471-0.056 0.417-0.069 0.708-0.206 0.708-0.206s0.28-0.126 0.331-0.331c0.04-0.159 0.09-0.353 0.11-0.553 0.047-0.456 0.031-0.922 0.031-0.922L40.223 33.81z" style="fill:#FFF;opacity:0.8"/>
    <path d="M46.123 32.38l0.017-12.036c0 0 0.028-1.226-0.294-2.05 -0.245-0.627-0.613-1.152-0.886-1.489 -0.212-0.263-0.369-0.415-0.369-0.415s-0.001-0.001-0.002-0.002c-0.009-0.009-0.048-0.051-0.1-0.113 0 0 0 0 0 0 -0.007-0.008-0.014-0.016-0.021-0.025 -0.091-0.111-0.209-0.27-0.29-0.438 -0.141-0.291-0.158-0.61-0.158-0.61l-0.051-1.438 -0.004 0 0-0.001c0.003 0 0.004 0 0.004 0s-0.068-3.382-0.061-3.454c0.004-0.042 0.019-0.069 0.025-0.078l0.01-0.011c0.005-0.005 0.011-0.011 0.016-0.018l0.001-0.001 0 0c0.005-0.006 0.009-0.012 0.01-0.018 0.002-0.006 0.003-0.012 0.005-0.018l0 0 0 0c0.006-0.029 0.005-0.053 0.005-0.053s-0.001-0.639-0.017-0.719c-0.012-0.061-0.052-0.068-0.052-0.068s-0.015-0.005-0.028-0.02l-0.018-0.067c0 0-0.001 0-0.002 0 -0.001-0.016 0-0.028 0-0.028l0.011-0.152c0 0 0.043-0.266-0.145-0.324 -0.075-0.023-0.142-0.045-0.238-0.052 -0.343-0.027-0.636-0.059-0.925-0.059 -0.367 0-0.582 0.033-0.925 0.059 -0.096 0.007-0.163 0.029-0.238 0.052C41.217 8.794 41.26 9.06 41.26 9.06l0.011 0.152c0 0 0.002 0.049-0.01 0.077 -0.012 0.029-0.038 0.038-0.038 0.038s-0.039 0.006-0.052 0.068c-0.016 0.081-0.017 0.719-0.017 0.719s-0.001 0.035 0.01 0.071c0.001 0.003 0.003 0.006 0.005 0.01l0 0 0 0c0.01 0.016 0.029 0.033 0.029 0.033l0.014 0.026c0.006 0.014 0.012 0.033 0.014 0.057 0.008 0.072-0.061 3.454-0.061 3.454s0.002 0 0.004 0l-0.015 0.715 0 0 -0.002 0.036 -0.042 0.69c0 0-0.017 0.318-0.158 0.61 -0.128 0.265-0.349 0.51-0.407 0.572 -0.001 0.001-0.003 0.003-0.003 0.003s-0.032 0.031-0.086 0.089c-0.21 0.222-0.819 0.913-1.172 1.817 -0.322 0.824-0.294 2.05-0.294 2.05l0.017 12.036 -0.026 2.527c0 0-0.016 0.466 0.031 0.923 0.021 0.2 0.07 0.394 0.11 0.553 0.051 0.205 0.331 0.331 0.331 0.331s0.291 0.137 0.708 0.206c0.145 0.024 0.327 0.044 0.525 0.06 0.585 0.07 1.203 0.102 1.881 0.102 0.628 0 1.308-0.034 1.93-0.109 0.177-0.015 0.339-0.034 0.471-0.056 0.417-0.069 0.708-0.206 0.708-0.206s0.28-0.126 0.331-0.331c0.04-0.159 0.089-0.353 0.11-0.553 0.047-0.456 0.031-0.922 0.031-0.922L46.123 32.38z" style="fill:#FFF;opacity:0.7"/>
    <path d="M15.676 35.24l-0.017-12.036c0 0-0.028-1.226 0.294-2.05 0.245-0.627 0.613-1.152 0.886-1.489 0.212-0.263 0.369-0.415 0.369-0.415s0.001-0.001 0.002-0.002c0.009-0.009 0.048-0.051 0.1-0.113 0 0 0 0 0 0 0.007-0.008 0.014-0.016 0.021-0.025 0.091-0.111 0.209-0.27 0.29-0.438 0.141-0.291 0.158-0.61 0.158-0.61l0.051-1.438 0.004 0 0-0.001c-0.003 0-0.004 0-0.004 0s0.068-3.382 0.061-3.454c-0.004-0.042-0.019-0.069-0.025-0.078l-0.01-0.011c-0.005-0.005-0.011-0.011-0.016-0.018l-0.001-0.001 0 0c-0.005-0.006-0.009-0.012-0.01-0.018 -0.002-0.006-0.003-0.012-0.005-0.018l0 0 0 0c-0.006-0.029-0.005-0.053-0.005-0.053s0.001-0.639 0.017-0.719c0.012-0.061 0.052-0.068 0.052-0.068s0.015-0.005 0.028-0.02l0.018-0.067c0 0 0.001 0 0.002 0 0.001-0.016 0-0.028 0-0.028l-0.011-0.152c0 0-0.043-0.266 0.145-0.324 0.075-0.023 0.142-0.045 0.238-0.052 0.343-0.027 0.636-0.059 0.925-0.059 0.367 0 0.582 0.033 0.925 0.059 0.096 0.007 0.163 0.029 0.238 0.052 0.187 0.058 0.145 0.324 0.145 0.324l-0.011 0.152c0 0-0.002 0.049 0.01 0.077 0.012 0.029 0.038 0.038 0.038 0.038s0.039 0.006 0.052 0.068c0.016 0.081 0.017 0.719 0.017 0.719s0.001 0.035-0.01 0.071c-0.001 0.003-0.003 0.006-0.005 0.01l0 0 0 0c-0.01 0.016-0.029 0.033-0.029 0.033l-0.014 0.026c-0.006 0.014-0.012 0.033-0.014 0.057 -0.008 0.072 0.061 3.454 0.061 3.454s-0.002 0-0.004 0l0.015 0.715 0 0 0.002 0.036 0.042 0.69c0 0 0.017 0.318 0.158 0.61 0.128 0.265 0.349 0.51 0.407 0.572 0.001 0.001 0.003 0.003 0.003 0.003s0.032 0.031 0.086 0.089c0.21 0.222 0.819 0.913 1.172 1.817 0.322 0.824 0.294 2.05 0.294 2.05l-0.017 12.036 0.026 2.527c0 0 0.016 0.466-0.031 0.923 -0.021 0.2-0.07 0.394-0.11 0.553 -0.051 0.205-0.331 0.331-0.331 0.331s-0.291 0.137-0.708 0.206c-0.145 0.024-0.327 0.044-0.525 0.06 -0.585 0.07-1.203 0.102-1.881 0.102 -0.628 0-1.308-0.034-1.93-0.109 -0.177-0.015-0.339-0.034-0.471-0.056 -0.417-0.069-0.708-0.206-0.708-0.206s-0.28-0.126-0.331-0.331c-0.04-0.159-0.089-0.353-0.11-0.553 -0.047-0.456-0.031-0.922-0.031-0.922L15.676 35.24z" style="fill:#FFF;opacity:0.9"/>
    <path d="M9.777 33.81L9.759 21.774c0 0-0.028-1.226 0.294-2.05 0.245-0.627 0.613-1.152 0.886-1.489 0.212-0.263 0.369-0.415 0.369-0.415s0.001-0.001 0.002-0.002c0.009-0.009 0.048-0.051 0.1-0.113 0 0 0 0 0 0 0.007-0.008 0.014-0.016 0.021-0.025 0.091-0.111 0.209-0.27 0.29-0.438 0.141-0.291 0.158-0.61 0.158-0.61l0.051-1.438 0.004 0 0-0.001c-0.003 0-0.004 0-0.004 0s0.068-3.382 0.061-3.454c-0.004-0.042-0.019-0.069-0.025-0.078l-0.01-0.011c-0.005-0.005-0.011-0.011-0.016-0.018l-0.001-0.001 0 0c-0.005-0.006-0.009-0.012-0.01-0.018 -0.002-0.006-0.003-0.012-0.005-0.018l0 0 0 0c-0.006-0.029-0.005-0.053-0.005-0.053s0.001-0.639 0.017-0.719c0.012-0.061 0.052-0.068 0.052-0.068s0.015-0.005 0.028-0.02l0.018-0.067c0 0 0.001 0 0.002 0 0.001-0.016 0-0.028 0-0.028l-0.011-0.152c0 0-0.043-0.266 0.145-0.324 0.075-0.023 0.142-0.045 0.238-0.052 0.343-0.027 0.636-0.059 0.925-0.059 0.367 0 0.582 0.033 0.925 0.059 0.096 0.007 0.163 0.029 0.238 0.052 0.187 0.058 0.145 0.324 0.145 0.324l-0.011 0.152c0 0-0.002 0.049 0.01 0.077 0.012 0.029 0.038 0.038 0.038 0.038s0.039 0.006 0.052 0.068c0.016 0.081 0.017 0.719 0.017 0.719s0.001 0.035-0.01 0.071c-0.001 0.003-0.003 0.006-0.005 0.01l0 0 0 0c-0.01 0.016-0.029 0.033-0.029 0.033l-0.014 0.026c-0.006 0.014-0.012 0.033-0.014 0.057 -0.008 0.072 0.061 3.454 0.061 3.454s-0.002 0-0.004 0l0.015 0.715 0 0 0.002 0.036 0.042 0.69c0 0 0.017 0.318 0.158 0.61 0.128 0.265 0.349 0.51 0.407 0.572 0.001 0.001 0.003 0.003 0.003 0.003s0.032 0.031 0.086 0.089c0.21 0.222 0.819 0.913 1.172 1.817 0.322 0.824 0.294 2.05 0.294 2.05l-0.017 12.036 0.026 2.527c0 0 0.016 0.466-0.031 0.923 -0.021 0.2-0.07 0.394-0.11 0.553 -0.051 0.205-0.331 0.331-0.331 0.331s-0.291 0.137-0.708 0.206c-0.145 0.024-0.327 0.044-0.525 0.06 -0.585 0.07-1.203 0.102-1.881 0.102 -0.628 0-1.308-0.034-1.93-0.109 -0.177-0.015-0.339-0.034-0.471-0.056 -0.417-0.069-0.708-0.206-0.708-0.206s-0.28-0.126-0.331-0.331c-0.04-0.159-0.089-0.353-0.11-0.553 -0.047-0.456-0.031-0.922-0.031-0.922L9.777 33.81z" style="fill:#FFF;opacity:0.8"/>
    <path d="M3.877 32.38L3.86 20.344c0 0-0.028-1.226 0.294-2.05 0.245-0.627 0.613-1.152 0.886-1.489 0.212-0.263 0.369-0.415 0.369-0.415s0.001-0.001 0.002-0.002c0.009-0.009 0.048-0.051 0.1-0.113 0 0 0 0 0 0 0.007-0.008 0.014-0.016 0.021-0.025 0.091-0.111 0.209-0.27 0.29-0.438 0.141-0.291 0.158-0.61 0.158-0.61l0.051-1.438 0.004 0 0-0.001c-0.003 0-0.004 0-0.004 0s0.068-3.382 0.061-3.454c-0.004-0.042-0.019-0.069-0.025-0.078l-0.01-0.011c-0.005-0.005-0.011-0.011-0.016-0.018L6.04 10.204l0 0c-0.005-0.006-0.009-0.012-0.01-0.018 -0.002-0.006-0.003-0.012-0.005-0.018l0 0 0 0c-0.006-0.029-0.005-0.053-0.005-0.053S6.02 9.476 6.037 9.395c0.012-0.061 0.052-0.068 0.052-0.068s0.015-0.005 0.028-0.02l0.018-0.067c0 0 0.001 0 0.002 0 0.001-0.016 0-0.028 0-0.028L6.126 9.06c0 0-0.043-0.266 0.145-0.324 0.075-0.023 0.142-0.045 0.238-0.052 0.343-0.027 0.636-0.059 0.925-0.059 0.367 0 0.582 0.033 0.925 0.059 0.096 0.007 0.163 0.029 0.238 0.052C8.783 8.794 8.74 9.06 8.74 9.06L8.729 9.212c0 0-0.002 0.049 0.01 0.077 0.012 0.029 0.038 0.038 0.038 0.038s0.039 0.006 0.052 0.068c0.016 0.081 0.017 0.719 0.017 0.719s0.001 0.035-0.01 0.071c-0.001 0.003-0.003 0.006-0.005 0.01l0 0 0 0c-0.01 0.016-0.029 0.033-0.029 0.033l-0.014 0.026c-0.006 0.014-0.012 0.033-0.014 0.057 -0.008 0.072 0.061 3.454 0.061 3.454s-0.002 0-0.004 0l0.015 0.715 0 0 0.002 0.036 0.042 0.69c0 0 0.017 0.318 0.158 0.61 0.128 0.265 0.349 0.51 0.407 0.572 0.001 0.001 0.003 0.003 0.003 0.003s0.032 0.031 0.086 0.089c0.21 0.222 0.819 0.913 1.172 1.817 0.322 0.824 0.294 2.05 0.294 2.05l-0.017 12.036 0.026 2.527c0 0 0.016 0.466-0.031 0.923 -0.021 0.2-0.07 0.394-0.11 0.553 -0.051 0.205-0.331 0.331-0.331 0.331s-0.291 0.137-0.708 0.206c-0.145 0.024-0.327 0.044-0.525 0.06 -0.585 0.07-1.203 0.102-1.881 0.102 -0.628 0-1.308-0.034-1.93-0.109 -0.177-0.015-0.339-0.034-0.471-0.056 -0.417-0.069-0.708-0.206-0.708-0.206s-0.28-0.126-0.331-0.331c-0.04-0.159-0.089-0.353-0.11-0.553 -0.047-0.456-0.031-0.922-0.031-0.922L3.877 32.38z" style="fill:#FFF;opacity:0.7"/>
  </g>
</svg>
