<svg xmlns="http://www.w3.org/2000/svg" xmlns:xlink="http://www.w3.org/1999/xlink" version="1.1" id="Calque_1" x="0px" y="0px" viewBox="0 0 50 50" xml:space="preserve" enable-background="new 0 0 50 50">
  <path d="M30.102 38.659L30.127 21.4c0 0 0.04-1.758-0.422-2.94 -0.351-0.899-0.879-1.652-1.27-2.135 -0.304-0.377-0.529-0.595-0.529-0.595s-0.002-0.002-0.003-0.003c-0.013-0.014-0.069-0.073-0.144-0.162 0 0 0 0 0 0 -0.01-0.012-0.02-0.023-0.03-0.036 -0.13-0.159-0.299-0.387-0.416-0.628 -0.202-0.418-0.227-0.874-0.227-0.874l-0.073-2.062 -0.006 0 0-0.001c0.004 0 0.006 0 0.006 0s-0.098-4.849-0.087-4.952c0.006-0.06 0.027-0.098 0.036-0.112l0.014-0.016C26.983 6.88 26.992 6.87 27 6.86l0.001-0.001 0 0c0.007-0.009 0.012-0.018 0.015-0.026 0.003-0.009 0.005-0.017 0.007-0.025l0 0 0 0c0.009-0.042 0.008-0.076 0.008-0.076S27.029 5.815 27.005 5.7c-0.018-0.088-0.074-0.097-0.074-0.097s-0.022-0.007-0.04-0.029l-0.026-0.096c0 0-0.001 0-0.002 0 -0.001-0.023-0.001-0.04-0.001-0.04l0.016-0.219c0 0 0.061-0.382-0.208-0.464 -0.108-0.033-0.203-0.064-0.341-0.075 -0.492-0.038-0.912-0.085-1.326-0.085 -0.526 0-0.834 0.047-1.326 0.085 -0.138 0.011-0.234 0.042-0.341 0.075 -0.269 0.083-0.208 0.464-0.208 0.464l0.016 0.219c0 0 0.003 0.07-0.014 0.111 -0.017 0.041-0.055 0.054-0.055 0.054S23.018 5.612 23 5.7c-0.024 0.115-0.025 1.032-0.025 1.032s-0.002 0.05 0.014 0.102c0.001 0.005 0.004 0.009 0.007 0.014l0 0 0 0c0.014 0.023 0.042 0.048 0.042 0.048l0.02 0.037c0.008 0.02 0.016 0.047 0.02 0.081 0.011 0.103-0.087 4.952-0.087 4.952s0.002 0 0.006 0l-0.022 1.025 0 0 -0.002 0.051 -0.06 0.989c0 0-0.025 0.456-0.227 0.874 -0.184 0.38-0.5 0.732-0.583 0.821 -0.002 0.002-0.004 0.004-0.004 0.004s-0.046 0.045-0.124 0.127c-0.302 0.319-1.174 1.31-1.68 2.606 -0.462 1.182-0.422 2.94-0.422 2.94l0.025 17.259 -0.037 3.624c0 0-0.023 0.668 0.044 1.323 0.029 0.286 0.101 0.565 0.158 0.793 0.073 0.294 0.475 0.475 0.475 0.475s0.418 0.196 1.015 0.295c0.209 0.034 0.469 0.063 0.752 0.086 0.838 0.101 1.724 0.147 2.697 0.147 0.9 0 1.875-0.049 2.768-0.157 0.254-0.022 0.486-0.048 0.676-0.08 0.598-0.099 1.015-0.295 1.015-0.295s0.402-0.181 0.475-0.475c0.057-0.227 0.128-0.506 0.158-0.793 0.067-0.654 0.044-1.323 0.044-1.323L30.102 38.659z" class="fill"/>
</svg>
