<?xml version="1.0" encoding="iso-8859-1"?>
<!-- Generator: Adobe Illustrator 18.0.0, SVG Export Plug-In . SVG Version: 6.00 Build 0)  -->
<!DOCTYPE svg PUBLIC "-//W3C//DTD SVG 1.1//EN" "http://www.w3.org/Graphics/SVG/1.1/DTD/svg11.dtd">
<svg version="1.1" id="Calque_1" xmlns="http://www.w3.org/2000/svg" xmlns:xlink="http://www.w3.org/1999/xlink" x="0px" y="0px"
	 viewBox="0 0 32 32" style="enable-background:new 0 0 32 32;" xml:space="preserve">
<path style="fill:#B0191B;" d="M28.383,27.597l-6.448-7.354c-0.08-0.091-0.171-0.163-0.267-0.226
	c0.634-0.685,1.189-1.464,1.638-2.334c2.686-5.2,0.649-11.593-4.551-14.28S7.161,2.755,4.474,7.955
	c-2.686,5.2-0.649,11.593,4.551,14.28c3.537,1.828,7.626,1.467,10.725-0.586c0.052,0.117,0.117,0.229,0.205,0.331l6.448,7.354
	c0.479,0.546,1.311,0.601,1.857,0.122h0C28.808,28.975,28.863,28.144,28.383,27.597z M9.807,20.724
	C5.441,18.468,3.73,13.101,5.986,8.736s7.623-6.076,11.988-3.821c4.366,2.255,6.076,7.623,3.821,11.988S14.172,22.979,9.807,20.724z
	"/>
</svg>
