<svg xmlns="http://www.w3.org/2000/svg" xmlns:xlink="http://www.w3.org/1999/xlink" version="1.1" id="Calque_1" x="0px" y="0px" viewBox="0 0 50 50" xml:space="preserve" enable-background="new 0 0 50 50">
  <g>
    <g>
      <polygon points="37.141,8.651 37.147,8.651 37.141,8.65   " class="fill"/>
      <path d="M44.313 11.347l-7.194-4.154c0.016 0.828 0.029 1.457 0.029 1.457l0.08 2.24c0 0 0.027 0.496 0.246 0.95 0.126 0.261 0.31 0.51 0.452 0.682 0.011 0.014 0.022 0.026 0.033 0.039l0 0c0.082 0.097 0.142 0.161 0.156 0.176 0.001 0.001 0.003 0.003 0.003 0.003s0.244 0.236 0.575 0.646c0.425 0.525 0.998 1.342 1.38 2.319C40.573 16.99 40.53 18.9 40.53 18.9l-0.027 18.754 0.032 3.18 3.777-2.181c1.341-0.774 2.167-2.205 2.167-3.754V15.101C46.48 13.552 45.654 12.122 44.313 11.347z" class="fill"/>
    </g>
    <path d="M32.032 44.825c-0.308-0.025-0.591-0.056-0.818-0.094 -0.649-0.107-1.103-0.32-1.103-0.32s-0.437-0.196-0.516-0.516c-0.062-0.247-0.139-0.55-0.171-0.861 -0.073-0.711-0.048-1.437-0.048-1.437l0.04-3.938 -0.027-18.754c0 0-0.043-1.91 0.458-3.194 0.55-1.408 1.498-2.485 1.826-2.831 0.085-0.09 0.135-0.138 0.135-0.138s0.002-0.002 0.004-0.004c0.09-0.097 0.434-0.479 0.633-0.892 0.22-0.454 0.247-0.95 0.247-0.95l0.065-1.075 0.002-0.056 0 0 0.024-1.114c-0.004 0-0.006 0-0.006 0s0.047-2.326 0.075-3.92l-5.685-3.282c-1.341-0.774-2.993-0.774-4.334 0L5.687 11.347c-1.341 0.774-2.167 2.205-2.167 3.754v19.798c0 1.548 0.826 2.979 2.167 3.754l17.146 9.899c1.341 0.774 2.993 0.774 4.334 0l6.249-3.608C32.939 44.917 32.479 44.878 32.032 44.825zM21.5 20.367c0.592 0 1.077 0.484 1.077 1.076 0 0.592-0.484 1.063-1.077 1.063 -0.592 0-1.063-0.471-1.063-1.063C20.437 20.852 20.908 20.367 21.5 20.367zM14.423 29.963v-9.191c-1.467 0.457-2.113 1.507-2.113 2.988 0 0.686 0.175 0.794 0.188 0.915 -0.929 0-1.44-0.336-1.44-1.306 0-1.79 2.476-3.499 4.724-3.499 0.188 0 0.363 0.014 0.538 0.027l0.121 8.276 2.826-8.236h0.942l-3.741 10.026H14.423zM27.475 30.044c-1.036 0-1.359-0.754-1.359-1.521 0-0.915 0.606-2.571 0.606-3.432 0-0.444-0.161-0.686-0.485-0.686 -0.485 0-0.848 0.565-1.05 1.238l-0.915 4.32h-1.938l0.169-0.796c-0.677 0.742-1.432 0.877-1.918 0.877 -0.808 0-1.44-0.485-1.44-1.615 0-0.256 0.04-0.552 0.108-0.875l0.915-4.32h1.938l-0.969 4.576c-0.04 0.175-0.054 0.31-0.054 0.431 0 0.377 0.175 0.498 0.552 0.498 0.523 0 1.004-0.507 1.208-1.175l0.918-4.329h1.938l-0.148 0.7c0.565-0.646 1.157-0.754 1.575-0.754 0.861 0 1.494 0.444 1.494 1.521 0 1.09-0.646 2.718-0.646 3.472 0 0.336 0.135 0.565 0.538 0.565 0.229 0 0.363-0.027 0.444-0.081C28.834 29.626 28.188 30.044 27.475 30.044z" class="fill"/>
    <g>
      <path d="M31.025 29.118c0.073 0.087 0.1 0.192 0.08 0.315 -0.023 0.127-0.087 0.233-0.19 0.32 -0.103 0.087-0.217 0.13-0.34 0.13 -0.123 0-0.221-0.043-0.295-0.13 -0.073-0.087-0.098-0.193-0.075-0.32 0.02-0.123 0.082-0.228 0.185-0.315 0.103-0.087 0.216-0.13 0.339-0.13C30.854 28.988 30.952 29.031 31.025 29.118z" class="fill"/>
      <path d="M33.697 24.908l-0.864 4.903h-0.449l0.864-4.903H33.697zM34.074 23.301c0.072 0.087 0.097 0.192 0.077 0.315 -0.023 0.127-0.087 0.233-0.19 0.32 -0.103 0.087-0.216 0.13-0.34 0.13s-0.221-0.043-0.295-0.13c-0.073-0.087-0.098-0.193-0.075-0.32 0.02-0.123 0.082-0.228 0.187-0.315 0.105-0.087 0.219-0.13 0.342-0.13C33.905 23.171 34.002 23.214 34.074 23.301z" class="fill"/>
      <path d="M37.816 24.464c0.759 0 1.358 0.268 1.798 0.804 0.439 0.536 0.592 1.184 0.459 1.942 -0.133 0.756-0.514 1.402-1.144 1.937 -0.629 0.536-1.323 0.804-2.082 0.804 -0.756 0-1.354-0.268-1.795-0.804 -0.441-0.536-0.595-1.182-0.462-1.937 0.133-0.759 0.515-1.406 1.146-1.942C36.367 24.732 37.06 24.464 37.816 24.464zM36.011 25.607c-0.521 0.443-0.836 0.977-0.946 1.603 -0.11 0.626 0.017 1.159 0.382 1.6 0.365 0.441 0.86 0.662 1.486 0.662 0.626 0 1.199-0.22 1.72-0.662 0.521-0.441 0.836-0.974 0.946-1.6 0.11-0.626-0.018-1.16-0.382-1.603 -0.365-0.443-0.86-0.664-1.486-0.664C37.105 24.943 36.532 25.165 36.011 25.607z" class="fill"/>
    </g>
  </g>
</svg>
